<svg width="20" height="20" viewBox="0 0 20 20" fill="none" xmlns="http://www.w3.org/2000/svg">
<g id="search 1" clip-path="url(#clip0_1377_6008)">
<path id="Vector" fill-rule="evenodd" clip-rule="evenodd" d="M14.1995 13.0203C15.2263 11.7366 15.8403 10.1083 15.8403 8.33667C15.8403 4.19264 12.4809 0.833252 8.33691 0.833252C4.19289 0.833252 0.833496 4.19264 0.833496 8.33667C0.833496 12.4807 4.19289 15.8401 8.33691 15.8401C10.1086 15.8401 11.7368 15.2261 13.0205 14.1992L17.7436 18.9224C18.0692 19.248 18.5971 19.248 18.9227 18.9224C19.2482 18.5968 19.2482 18.0689 18.9227 17.7433L14.1995 13.0203ZM8.33691 14.181C5.10916 14.181 2.49255 11.5644 2.49255 8.33667C2.49255 5.10892 5.10916 2.49231 8.33691 2.49231C11.5647 2.49231 14.1812 5.10892 14.1812 8.33667C14.1812 11.5644 11.5647 14.181 8.33691 14.181Z" fill="#3D3D3D"/>
</g>
<defs>
<clipPath id="clip0_1377_6008">
<rect width="20" height="20" fill="white"/>
</clipPath>
</defs>
</svg>
