<svg width="19" height="22" viewBox="0 0 19 22" fill="none" xmlns="http://www.w3.org/2000/svg">
<path id="Vector" fill-rule="evenodd" clip-rule="evenodd" d="M8.71484 0C8.16254 0 7.71484 0.44772 7.71484 1V2H7.21482C4.45348 2 2.21483 4.23825 2.21483 6.99975V10C2.21483 10.7377 1.98202 11.5722 1.61223 12.4148C1.24649 13.2482 0.773602 14.0294 0.356262 14.6439C-0.403278 15.7624 0.0670018 17.5301 1.62048 17.8103C2.63628 17.9935 4.07185 18.2115 5.7614 18.3527C5.75938 18.4015 5.75836 18.4506 5.75836 18.5C5.75836 20.433 7.32534 22 9.25834 22C11.1913 22 12.7583 20.433 12.7583 18.5C12.7583 18.4482 12.7572 18.3966 12.755 18.3453C14.4069 18.204 15.8108 17.9903 16.8091 17.8103C18.3626 17.5301 18.8329 15.7624 18.0734 14.6439C17.656 14.0294 17.1831 13.2482 16.8174 12.4148C16.4476 11.5722 16.2148 10.7377 16.2148 10V6.99975C16.2148 4.23825 13.9761 2 11.2148 2H10.7148V1C10.7148 0.44772 10.2671 0 9.71484 0H8.71484ZM9.21484 18.5C9.72614 18.5 10.227 18.4898 10.7145 18.4715C10.7224 19.2758 10.0689 19.9565 9.25834 19.9565C8.44954 19.9565 7.79514 19.2778 7.80204 18.4747C8.26214 18.491 8.73394 18.5 9.21484 18.5ZM7.21482 4C5.55789 4 4.21483 5.34298 4.21483 6.99975V10C4.21483 11.1234 3.87031 12.2463 3.44362 13.2186C3.01288 14.2 2.47012 15.0911 2.01083 15.7675C2.00062 15.7825 1.99586 15.7969 1.99425 15.8113C1.99281 15.8242 1.99403 15.8362 1.99651 15.8458C3.57924 16.1303 6.21528 16.5 9.21484 16.5C12.2143 16.5 14.8504 16.1303 16.4331 15.8458C16.4356 15.8362 16.4368 15.8242 16.4354 15.8113C16.4337 15.7969 16.429 15.7825 16.4188 15.7675C15.9595 15.0911 15.4167 14.2 14.986 13.2186C14.5593 12.2463 14.2148 11.1234 14.2148 10V6.99975C14.2148 5.34298 12.8717 4 11.2148 4H7.21482Z" fill="#3D3D3D"/>
</svg>
